<?xml version="1.0" encoding="UTF-8"?>
<!DOCTYPE svg  PUBLIC '-//W3C//DTD SVG 1.1//EN'  'http://www.w3.org/Graphics/SVG/1.1/DTD/svg11.dtd'>
<svg width="4in" height=".875in" clip-rule="evenodd" fill-rule="evenodd" image-rendering="optimizeQuality" shape-rendering="geometricPrecision" text-rendering="geometricPrecision" version="1.1" viewBox="0 0 4000 875" xml:space="preserve" xmlns="http://www.w3.org/2000/svg">
 <defs>
  <style type="text/css">
   <![CDATA[
    .fil3 {fill:#182628}
    .fil4 {fill:#65CCB8}
    .fil5 {fill:#F2F2F2}
    .fil2 {fill:#57BA98;fill-rule:nonzero}
    .fil1 {fill:#65CCB8;fill-rule:nonzero}
    .fil0 {fill:#F2F2F2;fill-rule:nonzero}
   ]]>
  </style>
 </defs>
    <path class="fil0" d="m1246 234c0 12-2 22-6 32s-10 19-18 26c-9 7-19 13-31 17-13 4-28 6-45 6-13 0-24 0-35-1-10-1-20-2-28-4v-53h6l18 6c6 2 14 3 23 3 13 0 22-2 29-5 7-4 11-8 14-14s4-12 5-19v-26-105h-60v-48h128v185zm255-10h-145c1 16 7 28 18 36 10 8 26 12 48 12 13 0 26-2 39-7 12-5 22-10 29-16h7v51c-14 6-27 10-40 13-13 2-27 4-42 4-40 0-71-9-92-27s-31-44-31-77c0-32 10-58 30-77s47-29 82-29c32 0 56 8 73 25 16 16 24 39 24 70v22zm-63-37c-1-13-4-23-10-30s-16-10-29-10c-12 0-22 3-30 9-8 7-12 17-13 31h82zm371-104h-5l-8-2c-7-1-12-2-17-2-12 0-21 2-25 6-5 5-7 13-7 27v1h49v43h-47v155h-63v-155h-72v155h-63v-155h-28v-43h28v-5c0-49 26-73 77-73 18 0 33 1 46 3v45h-4l-9-2c-6-1-12-2-17-2-12 0-21 2-25 6-5 5-7 13-7 27v1h74v-5c0-49 25-73 77-73 18 0 33 1 46 3v45zm407 228h-83l-79-105-15 19v86h-68v-262h68v118l93-118h79l-103 121 108 141zm93 0h-63v-198h63v198zm2-226h-67v-48h67v48zm257 226h-64v-98c0-8 0-16-1-24s-2-14-4-17c-3-5-6-8-11-10-4-2-10-3-19-3-5 0-11 1-17 3s-12 5-19 9v140h-64v-198h64v22c11-9 22-15 32-20s22-7 35-7c21 0 38 6 50 19 12 12 18 31 18 55v129zm251-23c0 19-3 34-8 47s-13 23-22 30c-10 7-21 12-35 16-13 3-29 5-45 5-14 0-28-1-41-3-14-2-25-4-35-6v-50h8c8 3 17 6 28 9 11 2 21 4 30 4 12 0 22-1 29-4 7-2 13-5 17-9s6-8 8-14c1-6 2-13 2-21v-4c-7 6-16 11-25 15-9 3-20 5-31 5-28 0-49-8-65-25-15-16-22-42-22-76 0-16 2-30 7-42 4-12 11-22 19-31 8-8 18-15 29-19 11-5 23-7 35-7 10 0 20 1 29 4 9 2 17 6 24 10l2-9h62v175zm-64-39v-90c-3-1-8-3-13-4-5 0-10-1-14-1-17 0-30 5-38 14-8 10-12 23-12 40 0 20 3 33 10 40 7 8 18 12 32 12 6 0 12-1 19-3 6-2 11-5 16-8z"/>
    <path class="fil1" d="m1202 403h-76v28h71v29h-71v65h-43v-152h119v30zm176 67c0 19-6 33-18 43-13 10-31 15-56 15-24 0-43-5-55-15-13-10-19-24-19-43v-97h43v95c0 10 3 18 7 23 5 5 13 8 24 8s19-3 24-8 7-12 7-23v-95h43v97zm161 55h-120v-152h43v122h77v30zm146 0h-120v-152h43v122h77v30zm238-48c0 15-7 27-21 36-14 10-33 14-57 14-14 0-26-1-36-3s-20-5-29-8v-37h5c9 7 19 12 30 15 11 4 21 5 31 5h11c4-1 7-1 10-2s6-3 8-5 3-4 3-8c0-3-1-6-4-9-3-2-8-4-14-5s-13-3-20-4-13-3-19-4c-14-5-24-10-31-17-6-7-9-16-9-27 0-14 7-25 21-34s32-14 54-14c11 0 22 1 32 3 11 2 20 5 28 8v34h-4c-7-4-15-8-25-12-10-3-20-5-30-5-4 0-7 1-11 1-3 1-7 1-10 3-3 1-5 2-7 4s-4 5-4 7c0 4 2 7 6 9 3 3 9 4 19 6 6 1 12 3 17 4 6 1 12 2 18 4 13 4 23 9 29 16 6 6 9 15 9 25zm160-74h-52v122h-43v-122h-52v-30h147v30zm180 122h-45l-11-31h-62l-11 31h-44l62-152h49l62 152zm-67-59l-20-54-20 54h40zm166 62c-12 0-24-2-34-5-11-4-20-9-27-15-8-7-14-15-18-25s-6-21-6-34c0-12 2-23 6-33 4-9 10-18 17-25 8-7 17-12 27-15 11-4 23-6 35-6 7 0 14 0 19 1 6 1 11 2 16 3s10 3 14 4c4 2 7 3 10 5v36h-4c-3-1-5-3-8-5-4-3-7-5-11-7s-9-4-14-5c-4-2-9-3-15-3s-12 1-17 3c-6 2-11 5-15 9-5 4-8 9-11 15s-4 14-4 23c0 10 1 18 4 24s7 11 11 15c5 4 10 6 16 8 5 2 11 2 16 2 6 0 11 0 16-2 5-1 10-3 14-5s7-4 10-7c3-2 6-4 8-5h4v36c-4 1-8 3-12 5-3 1-7 2-12 3-5 2-10 3-15 4-5 0-11 1-20 1zm247-3h-53l-50-61-10 11v50h-43v-152h43v69l60-69h49l-65 70 69 82z"/>
    <path class="fil2" d="m1213 656c0 15-7 27-19 37-13 9-30 14-52 14-12 0-23-2-33-4-9-2-18-5-26-8v-36h4c8 6 18 11 27 14 10 4 20 6 29 6 3 0 6-1 10-1s7-1 9-2c3-1 6-3 7-5 2-1 3-4 3-8 0-3-1-6-4-8-3-3-7-5-12-6-6-1-12-3-18-4-7-1-13-2-18-4-13-4-22-10-28-17-5-7-8-16-8-26 0-15 6-26 19-35s29-13 49-13c10 0 20 1 29 3 10 2 18 4 26 7v35h-5c-6-5-13-9-22-12-9-4-18-5-27-5h-10c-3 1-6 2-9 3s-5 2-7 4-3 5-3 7c0 4 2 7 5 10 3 2 9 4 17 5 6 2 11 3 16 4s11 2 17 4c11 4 20 9 25 16 6 6 9 15 9 25zm174-28c0 24-7 43-21 58-14 14-33 21-57 21-25 0-44-7-58-21-14-15-20-34-20-58s6-43 20-58c14-14 33-21 58-21 24 0 43 7 57 21 14 15 21 34 21 58zm-52 39c4-5 7-11 8-17 2-6 3-13 3-22s-1-17-3-23-5-12-8-16c-4-4-8-7-12-8-5-2-9-3-14-3s-10 1-14 2c-5 2-9 5-12 9-4 4-6 9-9 16-2 7-3 14-3 23s1 17 3 23c2 7 5 12 8 16 4 4 8 7 12 9 5 2 10 2 15 2s10-1 14-2c5-2 9-5 12-9zm190-85h-69v28h64v29h-64v65h-39v-152h108v30zm146 0h-48v122h-39v-122h-47v-30h134v30zm232-30l-41 152h-43l-27-99-27 99h-43l-41-152h41l23 105 28-105h39l27 105 25-105h39zm166 152h-40l-11-31h-56l-10 31h-40l56-152h45l56 152zm-60-58l-19-54-18 54h37zm167-47c0-4-1-7-3-10-1-3-4-5-8-6-2-1-5-2-9-2-3-1-7-1-12-1h-14v41h12c6 0 11-1 15-1 5-1 8-2 11-4s4-5 6-7c1-3 2-6 2-10zm61 105h-48l-41-56h-18v56h-39v-152h65c9 0 17 1 23 2 7 1 13 3 19 7 5 3 10 7 13 13 4 5 5 12 5 20 0 11-2 20-8 27-5 7-12 13-22 18l51 65zm127 0h-110v-152h110v30h-71v26h66v29h-66v37h71v30zm247-76c0 14-4 27-10 38-7 11-15 20-24 26-8 4-16 7-25 9s-19 3-31 3h-54v-152h55c13 0 23 1 32 3 9 3 17 5 23 9 10 7 19 15 25 26s9 24 9 38zm-41 0c0-10-2-19-5-26-4-7-10-12-18-16-4-2-8-3-12-4s-10-1-19-1h-9v94h9c10 0 16 0 21-1 4-1 8-2 12-5 7-4 13-9 16-16s5-15 5-25zm180 76h-110v-152h110v30h-70v26h65v29h-65v37h70v30zm170-152l-55 152h-44l-55-152h41l36 107 37-107h40zm131 152h-109v-152h109v30h-70v26h65v29h-65v37h70v30zm142 0h-109v-152h39v122h70v30zm171-76c0 24-7 43-21 58-13 14-33 21-57 21s-43-7-57-21c-14-15-21-34-21-58s7-43 21-58c14-14 33-21 57-21s43 7 57 21c14 15 21 34 21 58zm-52 39c4-5 7-11 9-17s3-13 3-22-2-17-4-23-5-12-8-16-7-7-12-8c-4-2-9-3-14-3s-10 1-14 2c-4 2-8 5-12 9-3 4-6 9-8 16s-3 14-3 23 1 17 3 23c2 7 4 12 8 16 3 4 7 7 12 9 4 2 9 2 14 2s10-1 14-2c5-2 9-5 12-9zm207-67c0 7-1 14-4 20-2 7-5 12-10 16-6 6-12 11-20 14-7 3-17 4-28 4h-24v50h-39v-152h64c10 0 18 1 25 3 6 2 12 4 17 7 6 4 11 9 14 16 3 6 5 13 5 22zm-41 1c0-4-1-8-3-11s-5-5-8-6c-4-2-8-3-12-3h-15-7v45h11c7 0 12 0 17-1 4-1 7-3 10-5s5-5 6-8 1-7 1-11zm178 103h-109v-152h109v30h-70v26h65v29h-65v37h70v30zm118-105c0-4-1-7-3-10-1-3-4-5-8-6-2-1-5-2-9-2-3-1-7-1-12-1h-14v41h12c6 0 11-1 15-1 5-1 8-2 11-4s4-5 6-7c1-3 2-6 2-10zm61 105h-48l-41-56h-18v56h-39v-152h65c9 0 17 1 23 2 7 1 13 3 19 7 5 3 10 7 13 13 3 5 5 12 5 20 0 11-2 20-8 27-5 7-12 13-22 18l51 65z"/>
     <path class="fil0" d="m1118 824c-5 0-10-1-14-2s-8-3-11-6c-3-2-6-6-7-10-2-4-3-8-3-13s1-9 3-13c1-4 4-8 7-10 3-3 6-5 11-7 4-1 9-2 14-2 3 0 5 0 8 1 2 0 4 0 6 1 2 0 4 1 5 1 2 1 4 2 5 2v15h-2c-1-1-2-2-3-2-2-1-3-2-5-3s-3-2-5-2c-2-1-4-1-6-1-3 0-5 0-8 1l-6 3c-1 2-3 4-4 6-1 3-2 6-2 10s1 7 2 9c1 3 3 5 5 6 2 2 4 3 6 3 2 1 4 1 7 1h6l6-3c1-1 3-1 4-2l3-3h2v15c-2 1-4 1-5 2-2 0-3 1-5 1-2 1-4 1-6 2h-8zm85-33h-1-3-4-6c-2 0-4 1-6 1v31h-17v-46h17v7c3-3 6-5 9-6 3 0 5-1 8-1h1 2v14zm73 12h-38c1 3 2 6 5 8s7 3 12 3c4 0 7-1 10-2 4-1 6-2 8-3h2v11c-4 2-7 3-11 3-3 1-7 1-11 1-10 0-18-2-23-6-6-4-8-10-8-18 0-7 2-13 7-18 6-4 13-6 22-6 8 0 14 2 18 5 5 4 7 10 7 17v5zm-17-9c0-3-1-5-2-7-2-1-4-2-8-2-3 0-5 1-7 2-2 2-4 4-4 7h21zm72 17v-10c-2 1-5 1-7 1-3 0-5 1-6 1-2 1-3 1-4 2s-1 2-1 4v2c0 1 1 1 2 2 0 0 1 1 2 1h5c1 0 3 0 4-1 2 0 4-1 5-2zm0 7c-1 1-2 1-3 2-2 1-3 2-4 2-2 1-3 1-5 2h-6c-5 0-9-1-12-4s-5-6-5-10 1-6 3-8c1-3 4-4 7-5 3-2 7-3 11-3 5-1 9-1 14-1 0-3-1-5-3-6-3-1-6-1-11-1-2 0-5 0-8 1s-5 2-7 2h-1v-11c1 0 4-1 8-1 4-1 8-1 12-1 9 0 16 1 20 4 4 2 6 6 6 12v31h-16v-5zm77 5h-6c-2 1-4 1-7 1-7 0-11-1-14-4-4-2-5-6-5-11v-22h-7v-10h7v-13h16v13h16v10h-16v16 5c0 1 1 2 1 3s1 2 2 2c1 1 3 1 5 1 1 0 2 0 3-1 2 0 3 0 3-1h2v11zm38 0h-16v-46h16v46zm1-52h-17v-11h17v11zm79 6l-20 46h-18l-20-46h18l11 32 12-32h17zm72 26h-37c0 3 2 6 4 8 3 2 7 3 13 3 3 0 7-1 10-2s6-2 7-3h2v11c-3 2-7 3-10 3-3 1-7 1-11 1-10 0-18-2-24-6-5-4-8-10-8-18 0-7 3-13 8-18 5-4 12-6 21-6s15 2 19 5c4 4 6 10 6 17v5zm-16-9c0-3-1-5-3-7-1-1-4-2-7-2s-6 1-8 2c-2 2-3 4-3 7h21zm61 13l-16 31h-11l9-31h18zm83 16h-40v-11h11v-39h-11v-11h40v11h-12v39h12v11zm77 0h-17v-23-5c0-2 0-3-1-4s-1-2-3-2c-1-1-2-1-5-1h-4c-2 1-3 2-5 3v32h-16v-46h16v5c3-2 6-3 8-4 3-1 6-2 9-2 6 0 10 1 13 4s5 7 5 13v30zm60 0h-5c-2 1-5 1-8 1-6 0-11-1-14-4-3-2-4-6-4-11v-22h-7v-10h7v-13h16v13h15v10h-15v16 5c0 1 0 2 1 3 0 1 1 2 2 2 1 1 3 1 5 1 1 0 2 0 3-1 1 0 2 0 3-1h1v11zm73-20h-37c0 3 1 6 4 8s7 3 13 3c3 0 6-1 10-2 3-1 5-2 7-3h2v11c-4 2-7 3-10 3-4 1-7 1-11 1-10 0-18-2-24-6-5-4-8-10-8-18 0-7 3-13 8-18 5-4 12-6 21-6 8 0 15 2 19 5 4 4 6 10 6 17v5zm-16-9c0-3-1-5-3-7-1-1-4-2-7-2s-6 1-8 2c-2 2-3 4-3 7h21zm57 29h-17v-63h17v63zm44 0h-16v-63h16v63zm45 0h-16v-46h16v46zm0-52h-17v-11h17v11zm78 47c0 4-1 8-2 10-2 3-4 6-6 7-2 2-5 3-9 4-3 1-7 1-12 1h-10c-4-1-7-1-9-2v-11h2c2 0 4 1 7 2h8 7c2-1 4-1 5-2s1-2 2-4v-5l-6 3c-3 1-5 1-8 1-7 0-13-2-17-6-4-3-6-9-6-17 0-4 1-7 2-10s3-5 5-7 5-3 8-4c2-1 6-2 9-2 2 0 5 0 7 1 2 0 4 1 6 2l1-2h16v41zm-17-10v-20c-1-1-2-1-3-1h-4c-4 0-7 1-9 3-3 2-4 5-4 9 0 5 1 8 3 9 2 2 5 3 8 3 2 0 3 0 5-1 2 0 3-1 4-2zm95-5h-37c0 3 2 6 4 8 3 2 7 3 13 3 3 0 7-1 10-2s6-2 8-3h1v11c-3 2-7 3-10 3-3 1-7 1-11 1-10 0-18-2-24-6-5-4-8-10-8-18 0-7 3-13 8-18 5-4 12-6 21-6s15 2 19 5c4 4 6 10 6 17v5zm-16-9c0-3-1-5-3-7-1-1-4-2-7-2s-6 1-8 2c-2 2-3 4-3 7h21zm92 29h-17v-23-5c0-2-1-3-1-4-1-1-2-2-3-2-1-1-2-1-5-1h-4c-2 1-3 2-5 3v32h-16v-46h16v5c3-2 6-3 8-4 3-1 6-2 9-2 6 0 10 1 13 4s5 7 5 13v30zm60 0h-5c-2 1-5 1-8 1-6 0-11-1-14-4-3-2-4-6-4-11v-22h-7v-10h7v-13h16v13h15v10h-15v16 5c0 1 0 2 1 3 0 1 1 2 2 2 1 1 3 1 5 1 1 0 2 0 3-1 1 0 2 0 3-1h1v11zm43-16l-16 31h-10l9-31h17zm100-3c0 6-3 11-8 14-6 4-13 6-23 6-6 0-11 0-15-1s-8-2-12-4v-14h2l12 6c5 1 9 2 13 2h5c1-1 3-1 4-1 1-1 2-1 3-2s1-2 1-3c0-2 0-3-2-4-1-1-3-1-5-2-3-1-5-1-8-2-3 0-6-1-8-1-6-2-10-4-12-7-3-3-4-6-4-11s3-10 8-13c6-4 13-6 22-6 5 0 9 1 13 1 5 1 8 2 12 3v14h-2c-3-2-6-3-10-5-4-1-8-2-12-2-2 0-3 0-5 1-1 0-3 0-4 1-1 0-2 1-3 2-1 0-1 1-1 2 0 2 1 3 2 4s4 2 8 2c2 1 4 1 7 2 2 0 5 1 7 1 5 2 9 4 12 7 2 2 3 6 3 10zm51 20c-5 0-9 0-12-1-4-1-7-3-10-5s-5-4-6-7c-2-3-3-7-3-11s1-8 3-11c1-3 4-5 7-7 2-2 5-4 9-5s7-1 11-1 7 0 10 1 6 2 8 3v12h-2c-1 0-2-1-2-2-1 0-2-1-4-1-1-1-2-2-4-2-1 0-3-1-5-1-4 0-8 2-10 4-2 3-4 6-4 10 0 5 2 8 4 10 2 3 6 4 10 4 2 0 4 0 6-1 1 0 3-1 4-1 1-1 2-1 3-2 0-1 1-1 2-2h2v13c-2 1-5 2-8 2-3 1-6 1-9 1zm72-13v-10c-3 1-5 1-8 1-2 0-4 1-5 1-2 1-3 1-4 2s-1 2-1 4v2c0 1 1 1 1 2 1 0 2 1 3 1h4c2 0 4 0 5-1 2 0 3-1 5-2zm0 7c-1 1-2 1-4 2-1 1-2 2-3 2-2 1-4 1-5 2h-6c-5 0-9-1-12-4s-5-6-5-10 1-6 2-8c2-3 5-4 8-5 3-2 6-3 11-3 4-1 9-1 14-1 0-3-1-5-4-6-2-1-5-1-10-1-3 0-5 0-8 1-4 1-6 2-7 2h-2v-11c2 0 5-1 9-1 4-1 8-1 12-1 9 0 16 1 20 4 4 2 6 6 6 12v31h-16v-5zm60 5h-16v-63h16v63zm59-12v-10c-2 1-4 1-7 1s-4 1-6 1c-1 1-3 1-4 2 0 1-1 2-1 4v2l2 2s1 1 2 1h5c1 0 3 0 5-1 1 0 3-1 4-2zm0 7c-1 1-2 1-3 2s-3 2-4 2c-1 1-3 1-5 2h-5c-5 0-9-1-13-4-3-3-4-6-4-10s0-6 2-8c2-3 4-4 7-5 3-2 7-3 11-3 5-1 9-1 14-1 0-3-1-5-3-6s-6-1-10-1c-3 0-6 0-9 1s-5 2-7 2h-1v-11c2 0 5-1 8-1 4-1 8-1 12-1 9 0 16 1 20 4 4 2 6 6 6 12v31h-16v-5zm98-19c0 8-3 14-7 18-5 5-10 7-17 7-3 0-5 0-7-1s-4-1-6-2l-1 2h-16v-63h17v22c2-2 5-3 7-4 3-1 6-2 9-2 7 0 12 2 15 6 4 4 6 10 6 17zm-17 1c0-4-1-7-3-10-1-2-4-3-8-3-2 0-3 0-5 1-1 0-3 1-4 2v22c1 1 2 1 3 1h4c4 0 7-1 9-3 3-2 4-6 4-10zm57 23h-16v-63h16v63zm79-20h-38c1 3 2 6 5 8s7 3 12 3c4 0 7-1 10-2 4-1 6-2 8-3h2v11c-4 2-7 3-10 3-4 1-7 1-11 1-11 0-18-2-24-6-5-4-8-10-8-18 0-7 2-13 8-18 5-4 12-6 21-6 8 0 14 2 19 5 4 4 6 10 6 17v5zm-16-9c0-3-1-5-3-7-2-1-4-2-7-2-4 0-6 1-8 2-2 2-3 4-4 7h22zm90 17v-10c-2 1-4 1-7 1-2 0-4 1-6 1-1 1-3 1-3 2-1 1-2 2-2 4 0 1 0 1 1 2 0 1 0 1 1 2 1 0 1 1 2 1h5c1 0 3 0 5-1 1 0 3-1 4-2zm0 7c-1 1-2 1-3 2s-3 2-4 2c-1 1-3 1-5 2h-5c-5 0-9-1-13-4-3-3-4-6-4-10s0-6 2-8c2-3 4-4 7-5 3-2 7-3 11-3 5-1 9-1 14-1 0-3-1-5-3-6s-6-1-10-1c-3 0-6 0-9 1s-5 2-6 2h-2v-11c2 0 5-1 8-1 4-1 8-1 12-1 9 0 16 1 20 4 4 2 6 6 6 12v31h-16v-5zm95 5h-16v-23-5c0-2-1-3-1-4-1-1-2-2-3-2-1-1-3-1-5-1h-4c-2 1-4 2-5 3v32h-17v-46h17v5c3-2 5-3 8-4s6-2 9-2c5 0 10 1 13 4s4 7 4 13v30zm78 0h-16v-5c-3 2-6 4-8 5-3 1-6 1-9 1-6 0-11-2-15-6-4-5-5-10-5-18 0-3 0-7 1-10 2-3 3-5 6-8 2-2 4-3 7-4s6-2 9-2 6 0 8 1c1 0 4 1 6 2v-19h16v63zm-16-13v-22c-2-1-3-1-4-1h-4c-4 0-7 1-9 3-2 3-3 6-3 10 0 5 0 8 2 10s5 3 8 3c2 0 4 0 5-1 2 0 3-1 5-2zm128-17c0 5-1 10-4 15-3 4-7 8-11 10-3 2-7 3-11 4s-9 1-14 1h-24v-61h25c5 0 10 1 14 2 4 0 7 2 10 3 5 3 8 6 11 10 3 5 4 10 4 16zm-18 0c0-4-1-8-2-11-2-3-5-5-8-6-2-1-4-2-6-2h-8-4v37h4 9c2 0 4-1 6-2 3-1 5-4 7-6 1-3 2-6 2-10zm94 10h-38c0 3 2 6 5 8s7 3 12 3c4 0 7-1 10-2s6-2 8-3h2v11c-4 2-8 3-11 3-3 1-7 1-11 1-10 0-18-2-23-6-6-4-8-10-8-18 0-7 2-13 7-18 6-4 13-6 22-6 8 0 14 2 18 5 5 4 7 10 7 17v5zm-17-9c0-3-1-5-2-7-2-1-4-2-8-2-3 0-5 1-7 2-2 2-4 4-4 7h21zm57 29h-16v-63h16v63zm45 0h-17v-46h17v46zm0-52h-17v-11h17v11zm79 6l-19 46h-19l-19-46h17l12 32 11-32h17zm73 26h-38c0 3 2 6 5 8s7 3 12 3c4 0 7-1 10-2s6-2 8-3h2v11c-4 2-8 3-11 3-3 1-7 1-11 1-10 0-18-2-23-6-6-4-8-10-8-18 0-7 2-13 7-18 5-4 13-6 22-6 8 0 14 2 18 5 5 4 7 10 7 17v5zm-17-9c0-3-1-5-2-7-2-1-4-2-8-2-3 0-5 1-7 2-3 2-4 4-4 7h21zm78-3h-2-3-4-6c-2 0-4 1-6 1v31h-16v-46h16v7c4-3 7-5 10-6 2 0 5-1 7-1h2 2v14zm72 12h-37c0 3 2 6 4 8 3 2 7 3 13 3 3 0 7-1 10-2s6-2 7-3h2v11c-3 2-7 3-10 3-3 1-7 1-11 1-10 0-18-2-24-6-5-4-8-10-8-18 0-7 3-13 8-18 5-4 12-6 21-6 8 0 15 2 19 5 4 4 6 10 6 17v5zm-16-9c0-3-1-5-3-7-1-1-4-2-7-2s-6 1-8 2c-2 2-3 4-3 7h21z"/>
     <path class="fil0" d="m3839 823h-16v-5c-3 2-6 4-8 5-3 1-5 1-9 1-6 0-11-2-15-6-3-5-5-10-5-18 0-3 0-7 2-10 1-3 3-5 5-8 2-2 4-3 7-4s6-2 9-2 6 0 8 1c2 0 4 1 6 2v-19h16v63zm-16-13v-22c-1-1-3-1-4-1h-3c-5 0-8 1-10 3-2 3-3 6-3 10 0 5 1 8 2 10 2 2 5 3 9 3 1 0 3 0 4-1 2 0 3-1 5-2z"/>
    <rect class="fil3" x="37" y="35" width="805" height="805"/>
     <rect class="fil4" x="37" y="35" width="261" height="805"/>
     <path class="fil0" d="m51 654c34-1 57-7 68-19 12-11 18-36 18-75v-429h138v433c0 67-13 114-39 141-27 28-72 42-136 43l-49-94z"/>
     <rect class="fil5" x="312" y="35" width="530" height="805"/>
     <polygon class="fil1" points="334 609 334 131 464 131 464 343 640 131 786 131 602 352 831 609 663 609 464 384 464 609"/>
</svg>
