<?xml version="1.0" encoding="UTF-8"?>
<!DOCTYPE svg  PUBLIC '-//W3C//DTD SVG 1.1//EN'  'http://www.w3.org/Graphics/SVG/1.1/DTD/svg11.dtd'>
<svg width="2in" height=".4375in" clip-rule="evenodd" fill-rule="evenodd" image-rendering="optimizeQuality" shape-rendering="geometricPrecision" text-rendering="geometricPrecision" version="1.1" viewBox="0 0 2000 438" xml:space="preserve" xmlns="http://www.w3.org/2000/svg">
 <defs>
  <style type="text/css">
   <![CDATA[
    .fil4 {fill:#17252A}
    .fil5 {fill:#2B7A78}
    .fil6 {fill:#DEF2F1}
    .fil2 {fill:#17252A;fill-rule:nonzero}
    .fil1 {fill:#2B7A78;fill-rule:nonzero}
    .fil3 {fill:#DEF2F1;fill-rule:nonzero}
    .fil0 {fill:#FEFFFF;fill-rule:nonzero}
   ]]>
  </style>
 </defs>
   <path class="fil0" d="m673 117c0 6-1 11-3 16s-5 9-9 13c-5 4-10 7-16 9s-13 3-22 3c-6 0-12-1-17-1-6-1-10-1-14-2v-26h3c3 1 5 2 9 2 3 1 6 2 11 2 6 0 11-1 14-3 4-1 6-4 8-7 1-2 2-6 2-9v-13-52h-30v-25h64v93zm128-5h-73c0 8 3 14 9 18 5 4 13 6 24 6 7 0 13-1 19-4 7-2 12-5 15-7h4v25c-7 3-14 5-21 6-6 2-13 2-21 2-20 0-35-4-45-13-11-9-16-22-16-38 0-17 5-30 15-39 10-10 24-14 41-14 16 0 28 4 36 12s13 20 13 35v11zm-32-19c0-6-2-11-5-15-3-3-8-5-15-5-6 0-11 2-15 5-3 3-6 8-6 15h41zm186-51h-3l-4-1c-3-1-6-2-9-2-6 0-10 2-12 4s-4 6-4 13v1h25v21h-23v78h-32v-78h-36v78h-32v-78h-13v-21h13v-3c0-24 13-37 39-37 9 0 17 1 23 2v23h-2l-5-1c-3-1-6-2-8-2-6 0-10 2-13 4-2 2-3 6-3 13v1h37v-3c0-24 13-37 39-37 8 0 16 1 23 2v23zm203 114h-42l-39-53-8 10v43h-34v-132h34v60l47-60h39l-51 61 54 71zm47 0h-32v-99h32v99zm1-114h-34v-24h34v24zm128 114h-32v-49c0-4 0-8-1-12 0-4-1-7-2-9s-3-4-5-5-5-1-9-1c-3 0-6 0-9 1s-6 2-10 4v71h-31v-99h31v11c6-5 11-8 17-11 5-2 10-3 17-3 10 0 19 3 25 9s9 16 9 28v65zm125-12c0 9-1 17-4 24-2 6-6 11-11 14-4 4-10 7-17 8-7 2-14 3-23 3-7 0-13-1-20-1-7-1-13-2-17-3v-25h3c4 1 9 3 15 4 5 1 10 2 15 2 6 0 10-1 14-2s6-2 8-4 4-5 4-8c1-3 2-6 2-10v-2c-4 3-8 6-13 7-5 2-10 3-16 3-14 0-24-4-32-12-7-9-11-21-11-38 0-9 1-16 3-22 3-5 6-11 10-15s9-7 14-10c6-2 12-3 18-3 5 0 10 1 14 2 5 1 9 3 12 5l2-4h30v87zm-31-20v-44c-2-1-4-2-7-2-3-1-5-1-7-1-9 0-15 2-19 7s-6 12-6 20c0 10 2 16 5 20 4 4 9 6 16 6 3 0 6-1 9-2s6-2 9-4z"/>
   <path class="fil1" d="m651 201h-38v14h35v15h-35v32h-21v-75h59v14zm88 34c0 9-3 16-9 21-7 5-16 8-28 8s-21-3-28-8c-6-5-9-12-9-21v-48h22v47c0 5 1 9 3 12 3 2 7 3 12 3s9-1 12-3c2-3 4-7 4-12v-47h21v48zm80 27h-60v-75h22v61h38v14zm74 0h-61v-75h22v61h39v14zm118-23c0 7-3 13-10 18-7 4-16 7-28 7-7 0-13-1-18-2-6-1-10-2-15-4v-18h2c5 3 10 5 15 7 6 2 11 3 16 3 2 0 3 0 5-1 3 0 4 0 6-1 1 0 3-1 4-2s1-2 1-4-1-3-2-4c-2-1-4-2-7-3s-6-1-10-2c-3-1-7-1-10-2-7-2-12-5-15-9-3-3-4-8-4-13 0-7 3-13 10-17 7-5 16-7 27-7 5 0 11 1 16 2 6 1 10 2 14 3v18h-2c-4-3-8-5-13-6-4-2-9-3-14-3-2 0-4 0-6 1-2 0-3 0-5 1-1 0-3 1-4 2s-1 2-1 4 1 3 2 4c2 1 5 2 10 3 3 1 6 1 9 2 2 0 5 1 9 2 6 2 11 5 14 8s4 7 4 13zm81-38h-27v61h-21v-61h-26v-14h74v14zm89 61h-22l-6-15h-30l-6 15h-22l31-75h25l30 75zm-33-29l-10-27-10 27h20zm83 31c-6 0-12-1-17-3-5-1-10-4-14-7-3-3-6-7-8-12s-3-11-3-17 1-12 3-17 4-9 8-12c4-4 8-6 14-8 5-2 11-3 17-3 4 0 7 0 10 1 3 0 5 0 8 1 2 1 4 1 6 2s4 2 6 2v19h-3c-1-1-2-2-4-3-1-1-3-2-5-3-2-2-4-2-7-3-2-1-5-1-7-1-3 0-6 0-9 1s-5 2-8 4c-2 2-4 5-5 8s-2 7-2 12c0 4 1 8 2 11 2 4 3 6 6 8 2 2 5 3 7 4 3 1 6 1 9 1 2 0 5 0 7-1 3-1 5-2 8-3 1-1 3-2 5-3l3-3h3v18l-6 3c-2 1-4 1-6 2-3 0-6 1-8 1-2 1-6 1-10 1zm123-2h-26l-25-30-5 6v24h-21v-75h21v34l30-34h25l-33 35 34 40z"/>
   <path class="fil2" d="m656 328c0 8-3 14-9 18-7 5-15 7-26 7-6 0-12 0-16-1-5-1-9-3-13-5v-18h2c4 4 8 6 13 8 5 1 10 2 15 2h4c2 0 4-1 5-1 2-1 3-1 4-2s1-3 1-4c0-2-1-3-2-5-1-1-3-2-6-2-3-1-6-2-9-2-3-1-6-2-9-3-6-2-11-4-14-8s-4-8-4-13c0-7 3-13 9-17 7-5 15-7 25-7 5 0 10 0 15 1 4 1 9 2 12 4v17h-2c-3-2-7-4-11-6-4-1-9-2-14-2h-4c-2 0-4 1-5 1-1 1-3 2-3 3-1 1-2 2-2 3 0 2 1 4 2 5 2 1 5 2 9 3 3 0 5 1 8 1 3 1 5 2 8 3 6 2 10 4 13 7 3 4 4 8 4 13zm87-14c0 12-3 22-10 29s-16 10-29 10c-12 0-21-3-28-10s-11-17-11-29 4-22 11-29 16-10 28-10 22 3 29 10 10 17 10 29zm-25 19c1-2 3-5 4-8s1-7 1-11c0-5 0-8-1-12-2-3-3-5-5-7-1-2-3-4-6-5-2-1-4-1-7-1-2 0-4 0-7 1-2 1-4 3-6 5-1 2-3 4-4 7-1 4-1 8-1 12 0 5 0 8 1 12 1 3 3 5 4 7 2 2 4 4 6 5s5 1 7 1c3 0 5 0 8-1 2-1 4-3 6-5zm94-42h-34v14h32v15h-32v32h-20v-76h54v15zm73 0h-23v61h-20v-61h-24v-15h67v15zm117-15l-21 76h-21l-14-49-13 49h-22l-20-76h20l12 52 14-52h19l14 52 12-52h20zm83 76h-21l-5-15h-28l-5 15h-20l28-76h23l28 76zm-31-29l-9-27-9 27h18zm84-24c0-2-1-3-1-5-1-1-2-2-4-3-2 0-3-1-5-1h-6-7v20h6 8c2 0 4-1 5-2s2-2 3-4c0-1 1-3 1-5zm30 53h-23l-21-28h-9v28h-20v-76h33c5 0 9 0 12 1 3 0 6 2 9 3 3 2 5 4 7 7 1 3 2 6 2 10 0 6-1 10-4 14-2 3-6 6-11 8l25 33zm64 0h-55v-76h55v15h-35v13h32v15h-32v18h35v15zm123-38c0 7-1 14-5 19-3 6-7 10-12 13-3 2-8 4-12 5-4 0-10 1-16 1h-26v-76h27c6 0 12 1 16 2 5 1 8 2 11 4 6 3 10 8 13 13s4 12 4 19zm-20 0c0-5-1-9-3-13-2-3-4-6-8-8-2-1-4-2-6-2s-6-1-10-1h-5v48h5c5 0 8-1 10-1 3 0 5-1 7-2 3-2 6-5 7-8 2-4 3-8 3-13zm90 38h-55v-76h55v15h-35v13h32v15h-32v18h35v15zm85-76l-28 76h-21l-28-76h20l19 53 18-53h20zm66 76h-55v-76h55v15h-36v13h33v15h-33v18h36v15zm71 0h-55v-76h20v61h35v15zm85-38c0 12-3 22-10 29s-17 10-29 10-22-3-29-10-10-17-10-29 3-22 10-29 17-10 29-10 22 3 29 10 10 17 10 29zm-26 19c2-2 3-5 4-8s2-7 2-11c0-5-1-8-2-12-1-3-2-5-4-7s-4-4-6-5-5-1-7-1-5 0-7 1-4 3-6 5-3 4-4 7c-1 4-2 8-2 12 0 5 1 8 2 12 1 3 2 5 4 7s4 4 6 5 5 1 7 1c3 0 5 0 7-1s4-3 6-5zm103-33c0 3 0 7-1 10s-3 6-5 8c-3 3-7 5-10 7-4 1-9 2-14 2h-12v25h-20v-76h32c5 0 9 1 12 1 4 1 7 3 9 4 3 2 5 5 7 8s2 7 2 11zm-20 1c0-3 0-4-2-6-1-1-2-3-4-3-2-1-4-1-5-2h-8-3v23h5c3 0 6 0 8-1 2 0 4-1 6-2 1-1 2-2 2-4 1-1 1-3 1-5zm89 51h-55v-76h55v15h-35v13h33v15h-33v18h35v15zm59-53c0-2-1-3-1-5-1-1-2-2-4-3-2 0-3-1-5-1h-6-7v20h6 8c2 0 4-1 5-2s2-2 3-4c0-1 1-3 1-5zm30 53h-23l-21-28h-9v28h-20v-76h33c5 0 9 0 12 1 3 0 6 2 9 3 3 2 5 4 7 7 1 3 2 6 2 10 0 6-1 10-4 14-2 3-6 6-11 8l25 33z"/>
    <path class="fil3" d="m609 412c-3 0-5 0-7-1l-6-3c-1-1-2-3-3-5s-1-4-1-7c0-2 0-4 1-6s2-4 3-5c2-2 4-3 6-3 2-1 4-1 7-1h4 3c1 1 2 1 3 1s1 1 2 1v7h-1c-1 0-1 0-2-1 0 0-1-1-2-1s-2-1-3-1-2-1-3-1-2 1-3 1-2 1-3 2c-1 0-2 1-3 3v4c0 2 0 4 1 5 0 1 1 2 2 3s2 1 3 2h3 3c1 0 2-1 3-1 1-1 2-1 2-2 1 0 2 0 2-1h1v7c-1 1-2 1-3 1 0 1-1 1-2 1s-2 1-3 1h-4zm43-16h-1s-1-1-2-1h-2-3c-1 1-2 1-3 1v15h-8v-22h8v3c2-1 4-2 5-3h4 1 1v7zm36 5h-19c0 2 1 4 2 5 2 0 4 1 7 1 1 0 3 0 5-1 1 0 3-1 3-2h1v6c-1 1-3 1-5 2h-5c-5 0-9-1-12-3s-4-5-4-9 1-7 4-9c2-2 6-3 10-3s8 1 10 3 3 4 3 8v2zm-8-4c0-1-1-3-2-3 0-1-2-2-3-2-2 0-3 1-4 2-1 0-2 2-2 3h11zm35 8v-4h-3c-1 0-2 0-3 1-1 0-1 0-2 1l-1 1c0 1 1 1 1 1v1c1 1 1 1 2 1h2 2c1-1 2-1 2-2zm0 4l-1 1c-1 1-1 1-2 1s-2 1-3 1h-2c-3 0-5-1-6-2-2-1-3-3-3-5s1-3 1-4c1-1 2-2 4-3 1 0 3-1 6-1 2 0 4 0 6-1 0-1 0-2-1-2-1-1-3-1-5-1s-3 0-5 1c-1 0-2 0-3 1h-1v-6c1 0 3 0 5-1h5c5 0 8 1 10 2 3 1 4 3 4 6v15h-9v-2zm39 2c-1 0-2 1-3 1h-4c-3 0-5-1-7-2-1-1-2-3-2-6v-10h-3v-5h3v-7h8v7h8v5h-8v8 2s0 1 1 1c0 1 0 1 1 2h2 2l1-1h1v5zm19 0h-8v-22h8v22zm0-26h-8v-5h8v5zm40 4l-10 22h-9l-10-22h9l6 15 6-15h8zm36 12h-19c1 2 1 4 3 5 1 0 3 1 6 1 2 0 3 0 5-1 2 0 3-1 4-2h1v6c-2 1-4 1-6 2h-5c-5 0-9-1-12-3s-4-5-4-9 1-7 4-9 6-3 11-3c4 0 7 1 9 3s3 4 3 8v2zm-8-4c0-1-1-3-1-3-1-1-2-2-4-2s-3 1-4 2c-1 0-2 2-2 3h11zm30 6l-8 16h-5l5-16h8zm42 8h-20v-5h5v-19h-5v-6h20v6h-6v19h6v5zm38 0h-8v-11-3c0-1 0-1-1-2 0 0 0-1-1-1h-2-3s-1 1-2 1v16h-8v-22h8v2c1-1 3-2 4-2 2-1 3-1 5-1s5 1 6 2c2 2 2 4 2 7v14zm31 0c-1 0-2 1-3 1h-4c-3 0-5-1-7-2-1-1-2-3-2-6v-10h-4v-5h4v-7h8v7h8v5h-8v8 2 1c1 1 1 1 1 2h3 2l1-1h1v5zm36-10h-19c0 2 1 4 3 5 1 0 3 1 6 1 2 0 3 0 5-1 1 0 3-1 4-2h1v6c-2 1-4 1-6 2h-5c-5 0-9-1-12-3s-4-5-4-9 1-7 4-9c2-2 6-3 11-3 4 0 7 1 9 3s3 4 3 8v2zm-8-4c0-1-1-3-1-3-1-1-2-2-4-2s-3 1-4 2c-1 0-2 2-2 3h11zm28 14h-8v-31h8v31zm23 0h-9v-31h9v31zm22 0h-8v-22h8v22zm0-26h-8v-5h8v5zm39 24c0 2 0 4-1 5-1 2-2 3-3 4s-3 1-4 1c-2 1-4 1-6 1h-6c-1 0-3-1-4-1v-6h1c1 1 2 1 4 1 1 1 2 1 3 1 2 0 3 0 4-1 1 0 2 0 2-1 1 0 1-1 1-1 1-1 1-2 1-3-1 1-2 1-4 1-1 1-2 1-4 1-3 0-6-1-8-3s-3-5-3-9c0-1 0-3 1-4 1-2 2-3 3-4s2-2 3-2c2-1 3-1 5-1h4c1 1 2 1 3 2v-1h8v20zm-8-5v-10c-1 0-1 0-2-1h-2c-2 0-4 1-5 2s-1 3-1 5 0 3 1 4 2 1 4 1h3s1 0 2-1zm47-3h-19c1 2 1 4 3 5 1 0 3 1 6 1 2 0 3 0 5-1 2 0 3-1 4-2h1v6c-2 1-4 1-6 2h-5c-5 0-9-1-12-3s-4-5-4-9 1-7 4-9 6-3 11-3c4 0 7 1 9 3s3 4 3 8v2zm-8-4c0-1 0-3-1-3-1-1-2-2-4-2s-3 1-4 2c-1 0-1 2-2 3h11zm46 14h-8v-11-3c-1-1-1-1-1-2l-1-1h-3-2c-1 0-2 1-3 1v16h-8v-22h8v2c2-1 3-2 5-2 1-1 2-1 4-1 3 0 5 1 7 2 1 2 2 4 2 7v14zm30 0c-1 0-2 1-3 1h-3c-3 0-6-1-7-2-2-1-3-3-3-6v-10h-3v-5h3v-7h8v7h8v5h-8v8 2c1 0 1 1 1 1 0 1 0 1 1 2h2 2c1 0 1-1 1-1h1v5zm22-8l-9 16h-5l5-16h9zm50-1c0 3-2 5-5 7-2 2-6 3-11 3-3 0-5 0-7-1-2 0-4-1-6-1v-8h1c1 2 4 3 6 3 2 1 4 1 6 1h2 2c1 0 2-1 2-1s1-1 1-2l-1-1c-1-1-2-1-3-1-1-1-3-1-4-1s-3-1-4-1c-3-1-5-2-6-4-1-1-2-3-2-5 0-3 1-5 4-7 3-1 7-2 11-2h7c2 1 4 1 5 2v7h-1c-1-1-3-2-5-3-2 0-4-1-6-1h-2c-1 0-1 1-2 1s-1 0-1 1c-1 0-1 1-1 1 0 1 0 2 1 2s2 1 4 1c1 0 2 1 3 1 2 0 3 0 4 1 3 0 5 2 6 3s2 3 2 5zm25 10c-2 0-4 0-6-1-2 0-4-1-5-2s-2-2-3-4c-1-1-1-3-1-5s0-4 1-5c1-2 2-3 3-4 2-1 3-2 5-2 2-1 4-1 6-1 1 0 3 0 4 1 2 0 3 0 5 1v6h-2l-1-1s-1 0-1-1h-2c-1-1-2-1-3-1-2 0-4 1-5 2s-2 3-2 5 1 4 2 5 3 2 5 2h3c1-1 1-1 2-1l1-1c1 0 1-1 1-1h2v6c-2 1-3 1-4 2h-5zm36-7v-4h-4c-1 0-2 0-3 1 0 0-1 0-2 1v1 1c0 1 0 1 1 1 0 1 0 1 1 1h2 3c0-1 1-1 2-2zm0 4c-1 0-1 1-2 1 0 1-1 1-2 1 0 0-1 1-2 1h-3c-2 0-4-1-6-2s-3-3-3-5 1-3 2-4l3-3c2 0 4-1 6-1s4 0 7-1c0-1-1-2-2-2-1-1-3-1-5-1-1 0-3 0-4 1-2 0-3 0-4 1v-6c1 0 2 0 4-1h6c4 0 8 1 10 2s3 3 3 6v15h-8v-2zm30 2h-8v-31h8v31zm30-6v-4h-4c-1 0-2 0-3 1-1 0-1 0-2 1v1 1 1c1 1 1 1 2 1h2 2c1-1 2-1 3-2zm0 4c-1 0-1 1-2 1-1 1-1 1-2 1s-2 1-2 1h-3c-3 0-5-1-6-2-2-1-3-3-3-5s1-3 2-4c0-1 2-2 3-3 2 0 3-1 6-1 2 0 4 0 7-1 0-1-1-2-2-2-1-1-3-1-5-1s-3 0-4 1c-2 0-3 0-4 1h-1v-6c1 0 3 0 5-1h6c4 0 8 1 10 2s3 3 3 6v15h-8v-2zm48-9c0 3-1 6-3 9-2 2-5 3-8 3h-4c-1-1-2-1-3-2l-1 1h-7v-31h8v11c1-1 2-2 4-2 1-1 2-1 4-1 3 0 6 1 8 3 1 2 2 5 2 9zm-8 0c0-2-1-4-1-5-1-1-3-1-4-1h-3c-1 0-1 0-2 1v11l1 1h2c3 0 4-1 5-2s2-3 2-5zm29 11h-8v-31h8v31zm39-10h-19c0 2 1 4 3 5 1 0 3 1 6 1 1 0 3 0 5-1 1 0 3-1 4-2v6c-1 1-3 1-5 2h-5c-5 0-9-1-12-3s-4-5-4-9 1-7 4-9c2-2 6-3 10-3 5 0 8 1 10 3s3 4 3 8v2zm-8-4c0-1-1-3-1-3-1-1-3-2-4-2-2 0-3 1-4 2-1 0-2 2-2 3h11zm45 8v-4h-3c-2 0-3 0-3 1-1 0-2 0-2 1-1 0-1 1-1 1v1c0 1 1 1 1 1 0 1 1 1 1 1h2 3l2-2zm0 4s-1 1-2 1c0 1-1 1-1 1-1 0-2 1-3 1h-3c-2 0-4-1-6-2-1-1-2-3-2-5s0-3 1-4 2-2 4-3c1 0 3-1 5-1s5 0 7-1c0-1 0-2-2-2-1-1-2-1-5-1-1 0-2 0-4 1-1 0-3 0-3 1h-1v-6c1 0 2 0 4-1h6c5 0 8 1 10 2s3 3 3 6v15h-8v-2zm48 2h-8v-11c0-1-1-2-1-3v-2l-1-1h-3-2c-1 0-2 1-3 1v16h-8v-22h8v2c2-1 3-2 4-2 2-1 3-1 5-1 3 0 5 1 6 2 2 2 3 4 3 7v14zm38 0h-8v-2c-1 1-2 2-4 2-1 1-2 1-4 1-3 0-6-1-7-3-2-2-3-5-3-9 0-2 0-3 1-5 0-1 1-3 2-4s3-2 4-2c2-1 3-1 5-1h3c1 1 2 1 3 2v-10h8v31zm-8-6v-11s-1 0-2-1h-1c-2 0-4 1-5 2s-2 3-2 5 1 4 2 5c0 1 2 2 4 2 0 0 1-1 2-1s2 0 2-1zm65-9c0 3-1 6-3 8-1 2-3 4-5 5s-3 2-5 2h-7-12v-30h12c3 0 5 0 7 1 2 0 4 1 5 2 2 1 4 3 6 5 1 2 2 4 2 7zm-9 0c0-2-1-3-2-5-1-1-2-2-4-3 0-1-1-1-2-1h-4-3v19h3c2 0 3 0 4-1h3c2-1 3-2 3-4 1-1 2-3 2-5zm46 5h-18c0 2 0 4 2 5 1 0 3 1 6 1 2 0 3 0 5-1 2 0 3-1 4-2h1v6c-2 1-4 1-5 2h-6c-5 0-9-1-12-3-2-2-4-5-4-9s2-7 4-9c3-2 6-3 11-3 4 0 7 1 9 3s3 4 3 8v2zm-8-4c0-1 0-3-1-3-1-1-2-2-4-2-1 0-3 1-4 2-1 0-1 2-1 3h10zm29 14h-9v-31h9v31zm22 0h-8v-22h8v22zm0-26h-9v-5h9v5zm40 4l-10 22h-9l-10-22h8l6 15 6-15h9zm36 12h-19c0 2 1 4 2 5 2 0 4 1 7 1 1 0 3 0 5-1 1 0 2-1 3-2h1v6c-2 1-3 1-5 2h-5c-5 0-9-1-12-3s-4-5-4-9 1-7 4-9c2-2 6-3 10-3s8 1 10 3 3 4 3 8v2zm-8-4c0-1-1-3-2-3 0-1-2-2-3-2-2 0-3 1-4 2-1 0-2 2-2 3h11zm38-1c-1 0-1-1-2-1h-2-3c-1 1-2 1-3 1v15h-8v-22h8v3c2-1 3-2 5-3h3 1 1v7zm37 5h-19c0 2 1 4 2 5 2 0 4 1 6 1s4 0 5-1c2 0 3-1 4-2h1v6c-2 1-3 1-5 2h-6c-5 0-9-1-11-3-3-2-4-5-4-9s1-7 3-9c3-2 7-3 11-3s7 1 9 3c3 2 4 4 4 8v2zm-9-4c0-1 0-3-1-3-1-1-2-2-4-2-1 0-2 1-3 2-1 0-2 2-2 3h10z"/>
    <path class="fil3" d="m1970 411h-9v-2c-1 1-2 2-4 2-1 1-2 1-4 1-3 0-5-1-7-3s-3-5-3-9c0-2 0-3 1-5 0-1 1-3 2-4s3-2 4-2c2-1 3-1 5-1h3c1 1 2 1 3 2v-10h9v31zm-9-6v-11s-1 0-1-1h-2c-2 0-4 1-5 2s-2 3-2 5 1 4 2 5 2 2 4 2c1 0 1-1 2-1s2 0 2-1z"/>
   <rect class="fil4" x="68" y="17" width="403" height="403"/>
     <rect class="fil5" x="68" y="17" width="131" height="403"/>
     <path class="fil0" d="m76 327c16-1 28-4 34-9 5-6 8-19 8-38v-215h69v217c0 34-6 57-19 71-13 13-36 20-68 21l-24-47z"/>
     <rect class="fil6" x="206" y="17" width="265" height="403"/>
     <polygon class="fil1" points="217 304 217 65 282 65 282 172 370 65 443 65 351 176 466 304 381 304 282 192 282 304"/>
</svg>
