<?xml version="1.0" encoding="UTF-8"?>
<!DOCTYPE svg  PUBLIC '-//W3C//DTD SVG 1.1//EN'  'http://www.w3.org/Graphics/SVG/1.1/DTD/svg11.dtd'>
<svg width="1in" height="1in" clip-rule="evenodd" fill-rule="evenodd" image-rendering="optimizeQuality" shape-rendering="geometricPrecision" text-rendering="geometricPrecision" version="1.1" viewBox="0 0 1000 1000" xml:space="preserve" xmlns="http://www.w3.org/2000/svg">
 <defs>
  <style type="text/css">
   <![CDATA[
    .fil0 {fill:#F2F2F2}
    .fil1 {fill:#182628;fill-opacity:0.000000}
   ]]>
  </style>
 </defs>
    <path class="fil0" d="m549 982c236 0 365-196 365-365 0-5 0-11-1-16 25-18 47-41 64-67-23 10-47 17-73 20 26-15 46-41 56-71-25 15-52 26-81 31-24-25-57-40-94-40-71 0-128 57-128 128 0 10 1 20 3 29-106-5-201-56-264-134-11 19-17 41-17 65 0 44 22 84 57 107-21-1-41-7-58-16v1c0 62 44 114 102 126-10 3-22 5-33 5-9 0-17-1-24-3 16 51 63 88 119 89-44 35-99 55-159 55-10 0-20 0-30-1 56 36 124 57 196 57z"/>
  <polygon class="fil1" points="0 0 1e3 0 1e3 1e3 0 1e3"/>
</svg>
